<svg version="1" xmlns="http://www.w3.org/2000/svg" width="682.667" height="682.667" viewBox="0 0 512.000000 512.000000"><path d="M243 104.4v15.3l-7.7.7c-31.4 2.9-60.1 16.5-74.7 35.4-10.5 13.8-14 24.9-14 44.7 0 23.2 4.8 35.9 18.9 50 14 14.1 23.6 18.9 57 29 9.9 3 18.5 5.5 19.2 5.5 1 0 1.3 5.4 1.3 24.5 0 13.5-.4 24.5-.8 24.5-.5 0-2.7-1.3-5-3-4.9-3.5-8.7-9.7-10.3-16.8l-1.2-5.2H147v2.8c0 9.1 5.3 27 10.6 35.8 10.2 16.9 28.9 31 50.9 38.3 5.5 1.8 21.3 5.2 30.8 6.6l3.7.6V424h23.9l.3-15.3.3-15.2 4.5-.3c8.9-.5 23.9-3.2 32.1-5.8 29-9.1 48.8-27.1 57.6-51.9 2.6-7.4 2.7-9.1 2.7-23.5s-.2-16.1-2.7-23.5c-5.1-14.5-15-26.6-29.3-35.8-11-7.1-27.6-13.8-52.6-21.2l-12.8-3.8v-23.8c0-14.7.4-23.9 1-23.9.5 0 2.6 1.5 4.6 3.2 4 3.5 6.8 8.9 7.9 15l.7 3.8h39.9c31.3 0 39.9-.3 39.9-1.3 0-3.5-2.3-15-4.2-20.7-4.2-13.1-9.5-21.8-19.3-31.5-5-5-11.6-10.5-14.7-12.3-13.4-7.9-29.6-13.3-46.5-15.4l-9.3-1.1V89h-24v15.4zm0 93.1c0 13.9-.3 20.5-1.1 20.5-1.9 0-9.8-6-12.3-9.3-3.8-5-5.3-11.7-3.8-17.2.7-2.6 2-5.8 2.9-7.2 1.6-2.4 10.3-7.3 13.1-7.3.9 0 1.2 4.8 1.2 20.5zm36.1 103.2c2.2 2 4.7 4.9 5.5 6.4 1.7 3.3 1.8 11.6.3 15.6-2 5.3-8.4 10.5-15.6 12.7l-2.3.7V293l4 2c2.3 1.2 5.9 3.7 8.1 5.7z"/></svg>